<?xml version="1.0" standalone="no"?>
<!DOCTYPE svg PUBLIC "-//W3C//DTD SVG 20010904//EN"
 "http://www.w3.org/TR/2001/REC-SVG-20010904/DTD/svg10.dtd">
<svg version="1.0" xmlns="http://www.w3.org/2000/svg"
 width="1044.000000pt" height="332.000000pt" viewBox="0 0 1044.000000 332.000000"
 preserveAspectRatio="xMidYMid meet">
<metadata>
Created by potrace 1.16, written by Peter Selinger 2001-2019
</metadata>
<g transform="translate(0.000000,332.000000) scale(0.100000,-0.100000)"
fill="#000000" stroke="none">
<path d="M9888 3170 l-356 -5 -21 -24 c-29 -33 -27 -83 3 -118 l24 -28 246 -5
246 -5 -275 -275 c-272 -272 -275 -275 -275 -317 0 -51 34 -83 89 -83 34 0 53
17 313 277 l278 278 0 -243 0 -244 29 -29 c44 -44 116 -35 140 18 15 32 15
736 1 764 -9 15 -79 55 -84 47 0 -1 -162 -5 -358 -8z"/>
<path d="M6135 2300 c-409 -40 -730 -272 -873 -630 -54 -134 -65 -204 -66
-400 -1 -189 3 -220 47 -360 107 -345 407 -600 794 -675 103 -20 352 -21 453
-1 297 59 524 204 676 431 207 312 229 743 56 1094 -133 272 -402 468 -721
526 -100 18 -266 25 -366 15z m236 -540 c157 -30 280 -147 340 -325 9 -26 14
-88 14 -175 0 -87 -5 -149 -14 -175 -47 -140 -134 -244 -248 -298 -85 -39
-221 -49 -323 -23 -161 41 -279 164 -325 337 -23 86 -20 259 7 344 40 128 120
224 234 277 98 46 205 59 315 38z"/>
<path d="M190 1260 l0 -1020 983 0 982 0 65 170 65 170 369 -3 370 -2 65 -168
64 -167 319 0 c175 0 318 3 318 6 0 3 -95 254 -212 558 -116 303 -291 758
-388 1011 l-177 460 -358 0 -358 0 -298 -775 -298 -775 -456 -3 -455 -2 0 780
0 780 -300 0 -300 0 0 -1020z m2584 103 c58 -171 106 -314 106 -317 0 -3 -101
-6 -225 -6 -124 0 -225 4 -225 9 0 4 50 151 110 326 61 175 110 321 110 324 1
18 27 -53 124 -336z"/>
<path d="M3290 2274 c0 -3 178 -291 395 -639 l395 -633 0 -381 0 -381 295 0
295 0 0 363 c0 199 4 377 9 394 9 29 105 188 601 988 75 121 146 237 159 258
l23 37 -341 0 -340 0 -84 -162 c-47 -90 -136 -264 -200 -386 l-114 -224 -194
384 -194 383 -352 3 c-194 1 -353 -1 -353 -4z"/>
<path d="M7420 1260 l0 -1020 295 0 295 0 2 540 3 540 234 -287 c129 -159 327
-402 440 -540 l206 -252 233 -1 232 0 0 1020 0 1020 -290 0 -290 0 -2 -542 -3
-542 -433 542 -433 542 -245 0 -244 0 0 -1020z"/>
</g>
</svg>
